<?xml version="1.0" standalone="no"?><!DOCTYPE svg PUBLIC "-//W3C//DTD SVG 1.1//EN" "http://www.w3.org/Graphics/SVG/1.1/DTD/svg11.dtd"><svg class="icon" height="512" viewBox="0 0 1024 1024" version="1.1" xmlns="http://www.w3.org/2000/svg"><path d="M1016.829693 898.856815L905.783575 537.083282c-4.445242-14.556531-12.892635-27.205619-24.363898-36.503379-13.431917-10.961656-29.92659-16.754592-47.74542-16.754593H511.335874c15.640212-16.953114 32.07144-33.122375 47.261397-48.094368 29.357632-28.92068 54.712089-53.877071 65.932642-75.567069 15.839757-30.594809 23.860431-63.521732 23.86043-97.880261 0-58.453297-23.545252-113.438609-66.361407-154.800645-42.782386-41.342594-99.653651-64.129576-160.143326-64.129577-124.903731 0-226.514967 98.213859-226.514967 218.931245 0 34.417881 8.023744 67.359131 23.85736 97.880261 11.786441 22.76447 37.685297 50.326199 67.668169 82.214467 12.237719 12.994965 25.327852 26.931373 38.281885 41.446971H190.331883c-17.796318 0-34.285874 5.773494-47.745421 16.706497-11.534707 9.398044-19.946284 22.033829-24.370037 36.529984L7.144724 898.897747c-1.669012 5.489014-2.52245 11.115152-2.52245 16.706497 0 16.923438 7.507998 32.936133 21.13639 45.086871 8.870018 7.898901 20.316721 13.978363 32.217772 17.10661 7.05365 1.883907 14.223956 2.848884 21.314445 2.848885h865.425401c6.994298 0 14.108323-0.953721 21.248954-2.841722 12.046361-3.197832 23.52274-9.29776 32.302706-17.140379 13.603833-12.181437 21.107737-28.199249 21.107737-45.078684 0.001023-5.522784-0.850367-11.135618-2.545986-16.72901zM317.832765 415.217746c-26.770713-28.454052-52.020794-55.332213-61.254085-73.144903-12.895705-24.858154-19.442818-51.703569-19.442818-79.789231 0-98.449219 82.882686-178.533163 184.747701-178.533163 49.328475 0 95.712899 18.563798 130.621966 52.29197 34.882462 33.730219 54.122665 78.564333 54.122665 126.241193 0 28.02324-6.550183 54.880935-19.443841 79.799464-8.30106 16.008602-32.640398 39.98262-58.427714 65.366753-38.024012 37.4571-83.216283 81.976036-109.424178 130.808208-27.937283-44.792159-67.862597-87.249133-101.499696-123.040291z m652.042524 515.806699c-3.90903 3.490497-9.378601 6.363941-14.956644 7.842619-3.488451 0.917906-6.91448 1.384533-10.201339 1.384533H185.727005a19.519566 19.519566 0 0 0-0.468674-1.60966c-9.03477-25.900903-14.475689-50.728358-16.180518-73.780377-0.795109-11.143805-10.821463-19.4684-22.298865-18.715247-11.504008 0.791016-20.177552 10.453073-19.351744 21.569248 1.674129 23.038716 6.557346 47.378054 14.477736 72.536036H79.290881c-3.288906 0-6.804986-0.467651-10.263761-1.402952-5.52483-1.452071-10.963703-4.314259-14.927991-7.844666-5.104251-4.548596-7.708566-9.735735-7.708566-15.399735 0-1.753947 0.279363-3.488451 0.819668-5.278213l111.072725-361.826746c1.474584-4.819772 4.618181-11.691273 11.18883-17.061584 5.981225-4.862751 12.812817-7.214309 20.860097-7.214308h144.136771c7.283894 0 13.687744-3.605108 17.426905-9.035794 21.079084 26.146497 39.639812 53.4217 50.548256 80.155574 3.346211 8.173147 11.475356 13.146415 20.937868 12.739139 9.094122-0.648776 16.747429-6.921643 18.84623-15.507182 5.780657-23.763217 19.549242-47.64616 36.976147-70.727854a21.304212 21.304212 0 0 0 9.803273 2.376117h31.535227c0.587378 27.431769 7.91732 47.873334 23.008017 64.086597 4.107551 4.437056 9.80225 6.686283 15.531741 6.686283 4.985548 0 9.969049-1.702782 13.964037-5.182023 8.588609-7.454786 9.271154-20.230764 1.560542-28.514427-5.77554-6.219655-11.704576-15.516392-12.301164-37.075407h271.369547c8.046257 0 14.817474 2.351558 20.824281 7.254217 6.601348 5.338588 9.750061 12.212136 11.220553 17.064655l111.047142 361.744881c0.562818 1.859347 0.845251 3.645017 0.845251 5.300726-0.002047 5.64865-2.606361 10.848069-7.737218 15.43555z" fill="#59C3F0" /><path d="M544.659841 260.090667c0-65.427128-55.086619-118.667703-122.774231-118.667704-67.693752 0-122.779348 53.240575-122.779348 118.667704 0 65.437361 55.085596 118.676913 122.779348 118.676913 67.687612-0.001023 122.774231-53.239552 122.774231-118.676913z m-203.787337 0c0-43.157939 36.353976-78.270645 81.012082-78.270645 44.652989 0 81.005942 35.111682 81.005942 78.270645 0 43.179428-36.353976 78.289064-81.005942 78.289064-44.658106 0-81.012082-35.109636-81.012082-78.289064zM213.988676 715.198935c-21.676695 3.218298-39.157835 12.212136-51.93893 26.724665-9.350972 10.618848-17.028838 23.254633-22.781866 37.57785-4.188392 10.391674 1.134847 22.086018 11.902075 26.126031a21.319561 21.319561 0 0 0 7.565302 1.393743c8.357342 0 16.265452-4.895497 19.468401-12.894682 4.049223-10.087753 9.320273-18.838044 15.669888-26.0237 6.261611-7.116071 14.647605-11.247158 26.464745-13.003152 11.389398-1.684362 19.240203-11.985986 17.480116-23.020296-1.75804-11.002588-12.243859-18.61701-23.829731-16.880459zM692.682106 766.202563c-23.236214 11.562337-47.066969 19.165502-72.822563 23.255656-11.392468 1.806135-19.127639 12.1886-17.260105 23.191189 1.700735 9.908674 10.546194 16.933671 20.59813 16.933671 1.133823 0 2.270716-0.104377 3.400447-0.273223 30.182416-4.78498 58.031695-13.68672 85.176938-27.194362 10.257621-5.115508 14.305821-17.286712 9.035793-27.200502-5.265934-9.889231-17.820877-13.817704-28.12864-8.712429zM385.92663 750.938927c-30.656207-10.497075-56.076156-19.074428-80.782861-25.701358-11.19497-2.933819-22.638603 3.318582-25.704429 14.065344-3.088338 10.732435 3.433192 21.86396 14.542205 24.849967 23.372314 6.272867 48.112788 14.616906 78.001514 24.858155a21.316491 21.316491 0 0 0 6.974856 1.157359c8.583492 0 16.659425-5.176906 19.690457-13.44829 3.853771-10.517541-1.840928-22.057365-12.721742-25.781177zM721.579249 605.474928l-5.097088-1.532913c-8.531304-2.447748-21.169135-4.466732-37.148062-6.992251-13.036921-2.064009-27.796066-4.397147-42.107003-7.331989-11.136641-2.304486-22.357194 4.628414-24.766057 15.541975-2.408863 10.909467 4.79112 21.639856 16.09763 23.954574 14.953573 3.074012 30.400381 5.53404 44.00319 7.695263 13.374612 2.110057 26.01142 4.118807 32.102139 5.858428l3.823072 1.154289a21.571295 21.571295 0 0 0 6.551206 1.02433c8.777921 0 16.941857-5.378497 19.829628-13.872962 3.62762-10.589173-2.323928-22.008246-13.288655-25.498744zM771.450077 652.166343c-9.267061 6.668886-11.19497 19.315928-4.278443 28.267811 4.869914 6.309706 7.337105 12.281721 7.337105 17.723663 0 6.840802-4.27742 13.925151-12.722766 21.089317l-4.529153 3.79749c-8.758478 7.256264-9.779737 20.004613-2.26867 28.481681 4.13211 4.65809 9.999748 7.05365 15.864316 7.05365 4.817726 0 9.660011-1.602498 13.601786-4.861728l4.931313-4.160763c22.242584-18.841114 26.889417-38.359656 26.889417-51.40067 0-14.332427-5.242398-28.40391-15.612583-41.849131-6.856152-8.93244-19.97289-10.789741-29.212322-4.14132zM541.679973 791.814894l-2.945075-0.245594c-20.685111-1.757017-45.079708-6.740518-74.575486-15.214517-11.076266-3.177366-22.669302 2.931772-25.984814 13.58132-3.287883 10.697643 3.00545 21.934568 14.080693 25.110911 32.673144 9.4093 58.969043 14.728446 82.907245 16.748453l3.059685 0.252756c0.596588 0.052189 1.166569 0.080841 1.759064 0.080841 10.741645 0 19.891026-7.987928 20.798698-18.523888 0.964978-11.115152-7.592932-20.880563-19.10001-21.790282z" fill="#59C3F0" /></svg>